<?xml version="1.0" encoding="UTF-8"?>
<svg width="896px" height="305px" viewBox="0 0 896 305" version="1.1" xmlns="http://www.w3.org/2000/svg" xmlns:xlink="http://www.w3.org/1999/xlink">
    <!-- Generator: Sketch 55 (78076) - https://sketchapp.com -->
    <title>Flock Logo</title>
    <desc>Created with Sketch.</desc>
    <g id="Page-1" stroke="none" stroke-width="1" fill="none" fill-rule="evenodd">
        <g id="Flock-Logo">
            <path d="M310.5,275.1 C300.7,267.9 288.5,258.1 287.3,240.9 C286.7,231.7 289.3,221.4 291.9,213.9 C293.5,210.4 294.9,206.8 296.2,203.2 C296.2,203.1 296.2,203.1 296.2,203.1 C301.8,187.2 304.9,170.1 304.9,152.3 C304.9,68.2 236.7,5.68434189e-14 152.5,5.68434189e-14 C68.3,5.68434189e-14 0.1,68.2 0.1,152.3 C0.1,236.4 68.3,304.6 152.5,304.6 C182.2,304.6 210,296.1 233.4,281.4 C237.4,279.5 240.8,278.4 242.7,279.2 C274.2,292.8 302.7,287.1 306.6,286.5 C310.5,285.9 320.2,282.3 310.5,275.1 L310.5,275.1 Z" id="Path" fill="#0ABE51"></path>
            <path d="M107.7,83.1 L210.1,83.1 C219.6,83.1 227.3,90.8 227.3,100.3 L227.3,101 C227.3,110.5 219.6,118.2 210.1,118.2 L107.7,118.2 C98.2,118.2 90.5,110.5 90.5,101 L90.5,100.3 C90.5,90.9 98.2,83.1 107.7,83.1 L107.7,83.1 Z" id="Path" fill="#FFFFFF"></path>
            <path d="M107.7,135.2 L172.4,135.2 C181.9,135.2 189.6,142.9 189.6,152.4 L189.6,153.2 C189.6,162.7 181.9,170.4 172.4,170.4 L107.7,170.4 C98.2,170.4 90.5,162.7 90.5,153.2 L90.5,152.4 C90.5,142.9 98.2,135.2 107.7,135.2 Z" id="Path" fill="#FFFFFF"></path>
            <path d="M107.7,186.4 L119.4,186.4 C128.9,186.4 136.6,194.1 136.6,203.6 L136.6,204.3 C136.6,213.8 128.9,221.5 119.4,221.5 L107.7,221.5 C98.2,221.5 90.5,213.8 90.5,204.3 L90.5,203.6 C90.5,194.1 98.2,186.4 107.7,186.4 L107.7,186.4 Z" id="Path" fill="#FFFFFF"></path>
            <g id="Group" transform="translate(364.000000, 62.000000)" fill="#333333" fill-rule="nonzero">
                <path d="M77.2,24.6 C73.5,24.6 70.2,22.1 65,22.1 C54.8,22.1 48.5,29.1 48.5,41.8 L48.5,49.3 L63,49.3 C69.2,49.3 74.5,54.5 74.5,61.3 C74.5,67.5 69.3,72.8 63,72.8 L48.5,72.8 L48.5,158 C48.5,165.2 42.5,171.2 34.8,171.2 C27.6,171.2 21.6,165.2 21.6,158 L21.6,72.8 L11.6,72.8 C5.4,72.8 0.1,67.6 0.1,60.8 C0.1,54.6 5.3,49.3 11.6,49.3 L21.6,49.3 L21.6,41.8 C21.6,16.4 36.8,0.9 60,0.9 C73.7,0.9 86.7,5.9 86.7,14.4 C86.7,20.9 81.7,24.6 77.2,24.6 Z" id="Path"></path>
                <path d="M123,171.2 C115.5,171.2 109.8,165.2 109.8,158 L109.8,14.9 C109.8,7.9 115.5,1.9 123.5,1.9 C130.5,1.9 136.5,7.9 136.5,14.9 L136.5,158 C136.4,165.2 130.5,171.2 123,171.2 Z" id="Path"></path>
                <path d="M223,172.7 C184.4,172.7 160.9,144 160.9,109.4 C160.9,75 184.3,46.3 223,46.3 C261.7,46.3 285,75 285,109.4 C285,144 261.6,172.7 223,172.7 Z M223,70 C200.8,70 188.6,88.4 188.6,109.4 C188.6,130.6 200.8,149 223,149 C244.9,149 257.1,130.6 257.1,109.4 C257.1,88.5 244.9,70 223,70 Z" id="Shape"></path>
                <path d="M403.6,159.2 C394.9,167.2 382.4,172.7 365,172.7 C328.4,172.7 302.7,146 302.7,109.4 C302.7,73 328.4,46.3 365,46.3 C383.4,46.3 398.9,52.8 405.6,62.5 C406.8,64 407.3,66 407.3,68 C407.3,75 401.1,79.5 394.8,79.5 C392.1,79.5 389.3,78.8 387.1,77 C380.9,72.3 373.9,70 366.2,70 C344.5,70 330.1,86.2 330.1,109.4 C330.1,132.6 344.6,149 366.2,149 C374.2,149 380.9,146.5 387.1,141.8 C389.6,140.1 392.1,139.3 394.8,139.3 C401.3,139.3 407.5,144 407.5,151 C407.6,154 406.3,157.2 403.6,159.2 L403.6,159.2 Z" id="Path"></path>
                <path d="M518.6,171.2 C514.4,171.2 510.1,169.5 507.6,165.7 L474.2,120.3 L457.7,137.5 L457.7,158 C457.7,165.2 451.7,171.2 444.2,171.2 C436.7,171.2 431,165.2 431,158 L431,14.9 C431,7.9 436.7,1.9 444.7,1.9 C451.7,1.9 457.7,7.9 457.7,14.9 L457.7,106.9 L507.8,51.6 C510,49.1 513.3,47.6 516.5,47.6 C523.2,47.6 529.2,53.6 529.2,60.3 C529.2,63 528,66 526.2,68.3 L493.3,103.9 L529.2,150.3 C530.7,152.5 531.7,155.3 531.7,157.8 C531.8,164.2 526.5,171.2 518.6,171.2 L518.6,171.2 Z" id="Path"></path>
            </g>
        </g>
    </g>
</svg>