<svg height="62" viewBox="0 0 62 62" width="62" xmlns="http://www.w3.org/2000/svg"><g fill="none" fill-rule="evenodd" transform="translate(1 1)"><path d="m30.131 21h-18.287c-1.018 0-1.844.86-1.844 1.921v11.85c0 1.06.826 1.934 1.844 1.934h2.043l1.844 3.578a.803.803 0 0 0 1.169 0l1.963-3.591h11.268c1.019 0 1.844-.86 1.844-1.921v-11.851c0-1.06-.825-1.921-1.844-1.921z" fill="#f8f8f8" stroke="#545859" stroke-width="1.5"/><g fill="#0abe51"><rect height="1" rx=".5" width="13.518" x="14.384" y="24.426"/><rect height="1" rx=".5" width="13.518" x="14.384" y="28.233"/><rect height="1" rx=".5" width="13.518" x="14.384" y="32.039"/></g><path d="m28.869 16h18.287c1.018 0 1.844.86 1.844 1.921v11.85c0 1.06-.826 1.934-1.844 1.934h-2.043l-1.844 3.578a.803.803 0 0 1 -1.169 0l-1.963-3.591h-11.268c-1.019 0-1.844-.86-1.844-1.921v-11.851c0-1.06.825-1.921 1.844-1.921z" fill="#f8f8f8" stroke="#545859" stroke-width="1.5"/><g transform="matrix(-1 0 0 1 44.616 19.426)"><rect fill="#0abe51" height="1" rx=".5" width="13.518"/><rect fill="#0abe51" height="1" rx=".5" width="13.518" y="3.807"/><rect fill="#545859" height="1" rx=".5" width="13.518" y="7.613"/></g><g transform="matrix(-1 0 0 1 46 27)"><path d="m20.131 0h-18.287c-1.018 0-1.844.86-1.844 1.921v11.85c0 1.06.826 1.934 1.844 1.934h2.043l1.844 3.578a.803.803 0 0 0 1.169 0l1.963-3.591h11.268c1.019 0 1.844-.86 1.844-1.921v-11.851c0-1.059-.825-1.92-1.844-1.92z" fill="#f8f8f8" stroke="#545859" stroke-width="1.5"/><g fill="#0abe51"><rect height="1" rx=".5" width="13.518" x="4.384" y="3.426"/><rect height="1" rx=".5" width="13.518" x="4.384" y="7.233"/><rect height="1" rx=".5" width="13.518" x="4.384" y="11.039"/></g></g><circle cx="30" cy="30" r="30" stroke="#545859" stroke-width="2"/></g></svg>