<svg xmlns="http://www.w3.org/2000/svg" width="60" height="60" viewBox="0 0 57 39">
    <g fill="none" fill-rule="evenodd">
        <g stroke="#545859" stroke-width="2">
            <path d="M10 14h12v18H10z"/>
            <path d="M10.018 32V14H10a9 9 0 0 0 0 18h.018zM22 13.472v19.056l15 12.353V1.119L22 13.472z"/>
        </g>
        <g fill="#0ABE51">
            <path d="M43.621 28c-.619 0-1.121-.539-1.121-1.197 0-.66.502-1.197 1.121-1.197 1.164 0 2.074-.943 2.074-2.14 0-1.196-.91-2.135-2.074-2.135-.619 0-1.121-.536-1.121-1.197 0-.66.502-1.196 1.121-1.196 2.42 0 4.316 1.989 4.316 4.528 0 2.545-1.897 4.534-4.316 4.534"/>
            <path d="M43.682 32.531c-.652 0-1.182-.56-1.182-1.244 0-.686.53-1.243 1.182-1.243 3.598 0 6.423-2.886 6.423-6.578 0-3.681-2.82-6.572-6.423-6.572-.652 0-1.182-.557-1.182-1.244 0-.687.53-1.244 1.182-1.244 4.926 0 8.787 3.98 8.787 9.06 0 5.085-3.86 9.065-8.787 9.065"/>
            <path d="M43.692 36.156a1.2 1.2 0 0 1-1.192-1.202c0-.663.534-1.202 1.192-1.202 6.125 0 10.924-4.714 10.924-10.738 0-6.02-4.8-10.735-10.924-10.735a1.197 1.197 0 0 1-1.192-1.202c0-.658.534-1.202 1.192-1.202C51.155 9.875 57 15.645 57 23.014c0 7.37-5.845 13.142-13.308 13.142"/>
        </g>
    </g>
</svg>
