<svg xmlns="http://www.w3.org/2000/svg" width="60" height="60" viewBox="0 0 62 26">
    <g fill="none" fill-rule="evenodd">
        <g fill="#545859" transform="translate(10 8)">
            <rect width="30" height="1.636" rx=".818"/>
            <rect width="30" height="1.636" y="8" rx=".818"/>
            <rect width="30" height="1.636" y="16" rx=".818"/>
        </g>
        <path stroke="#545859" stroke-width="2" d="M44.972 1H5.028A4.031 4.031 0 0 0 1 5.033V29.9c0 2.227 1.804 4.061 4.028 4.061H9.49l4.028 7.509a1.804 1.804 0 0 0 2.553 0l4.288-7.537h24.613A4.031 4.031 0 0 0 49 29.901V5.033A4.031 4.031 0 0 0 44.972 1z"/>
        <g fill="#F8F8F8" stroke="#545859" stroke-width="2" transform="translate(33 14)">
            <circle cx="14" cy="14" r="14"/>
        </g>
        <g stroke="#0ABE51" stroke-width="2">
            <path d="M42.345 31l4.37 5.924L51.083 31h-8.739zm4.45 6.21l-.08.06-.08-.06.08-.075.08.076zm-.08-.075l.085-.081c-.068-.072-.104-.072-.172 0l.086.081zm4.774-6.678l.036-.043a.45.45 0 0 0-.036.043zM51.084 26l-4.37-5.924L42.345 26h8.739zm-4.45-6.21l.08-.06.08.06-.08.075-.08-.076zm.08.075l-.086.081c.068.072.104.072.172 0l-.086-.081z"/>
        </g>
    </g>
</svg>
