<svg xmlns="http://www.w3.org/2000/svg" xmlns:xlink="http://www.w3.org/1999/xlink" width="60" height="60" viewBox="0 0 62 35">
    <defs>
        <path id="a" d="M.999.001a.999.999 0 0 0-.998 1.001v6.999c0 .552.447.998.998.998h8A.998.998 0 0 0 10 8.001V1.002A1 1 0 0 0 8.999.001h-8z"/>
    </defs>
    <g fill="none" fill-rule="evenodd">
        <g transform="translate(1 1)">
            <path fill="#F8F8F8" stroke="#545859" stroke-width="2" d="M32.027 0H2.934C1.314 0 0 1.334 0 2.978v18.366c0 1.645 1.314 3 2.934 3h3.25l2.933 5.544a1.301 1.301 0 0 0 1.86 0l3.123-5.565h17.927c1.62 0 2.934-1.334 2.934-2.979V2.978C34.961 1.334 33.647 0 32.027 0z"/>
            <g fill="#545859" transform="translate(6.975 5.31)">
                <rect width="21.505" height="1.18" rx=".59"/>
                <rect width="21.505" height="1.18" y="5.9" rx=".59"/>
                <rect width="21.505" height="1.18" y="11.801" rx=".59"/>
            </g>
            <g transform="translate(14.727 9.773)">
                <path fill="#F8F8F8" stroke="#545859" stroke-width="2" d="M32.027 0H2.934C1.314 0 0 1.334 0 2.978v18.366c0 1.645 1.314 3 2.934 3h3.25l2.933 5.544a1.301 1.301 0 0 0 1.86 0l3.123-5.565h17.927c1.62 0 2.934-1.334 2.934-2.979V2.978C34.961 1.334 33.647 0 32.027 0z"/>
                <rect width="21.505" height="1.18" x="6.975" y="5.31" fill="#545859" rx=".59"/>
                <rect width="21.505" height="1.18" x="6.975" y="11.211" fill="#545859" rx=".59"/>
                <rect width="21.505" height="1.18" x="6.975" y="17.111" fill="#545859" rx=".59"/>
            </g>
            <circle cx="46" cy="32" r="14" fill="#F8F8F8" stroke="#545859" stroke-width="2"/>
        </g>
        <g transform="translate(42 31)">
            <mask id="b" fill="#fff">
                <use xlink:href="#a"/>
            </mask>
            <path stroke="#0ABE51" stroke-width="2" d="M1 0h8a1 1 0 0 1 1 1v7a1 1 0 0 1-1 1H1a1 1 0 0 1-1-1V1a1 1 0 0 1 1-1z" mask="url(#b)"/>
        </g>
        <path stroke="#0ABE51" stroke-width="2" d="M47 25a3 3 0 0 1 3 3v2a1 1 0 0 1-1 1h-4a1 1 0 0 1-1-1v-2a3 3 0 0 1 3-3z"/>
        <path stroke="#0ABE51" d="M47 36a1 1 0 1 0 0-2 1 1 0 0 0 0 2z"/>
        <path stroke="#0ABE51" stroke-width="2" d="M43 31h8a1 1 0 0 1 1 1v7a1 1 0 0 1-1 1h-8a1 1 0 0 1-1-1v-7a1 1 0 0 1 1-1z"/>
        <path fill="#0ABE51" d="M46.5 36h1v1.5a.5.5 0 0 1-1 0V36z"/>
        <path stroke="#0ABE51" d="M47 36a1 1 0 1 0 0-2 1 1 0 0 0 0 2z"/>
    </g>
</svg>
