<svg xmlns="http://www.w3.org/2000/svg" xmlns:xlink="http://www.w3.org/1999/xlink" width="60" height="60" viewBox="0 0 62 26">
    <defs>
        <path id="a" d="M0 0h12v19H0z"/>
    </defs>
    <g fill="none" fill-rule="evenodd">
        <g fill="#545859" transform="translate(10 8)">
            <rect width="30" height="1.636" rx=".818"/>
            <rect width="30" height="1.636" y="8" rx=".818"/>
            <rect width="30" height="1.636" y="16" rx=".818"/>
        </g>
        <path stroke="#545859" stroke-width="2" d="M44.972 1H5.028A4.031 4.031 0 0 0 1 5.033V29.9c0 2.227 1.804 4.061 4.028 4.061H9.49l4.028 7.509a1.804 1.804 0 0 0 2.553 0l4.288-7.537h24.613A4.031 4.031 0 0 0 49 29.901V5.033A4.031 4.031 0 0 0 44.972 1z"/>
        <g fill="#F8F8F8" stroke="#545859" stroke-width="2" transform="translate(33 14)">
            <circle cx="14" cy="14" r="14"/>
        </g>
        <g transform="translate(41 20)">
            <mask id="b" fill="#fff">
                <use xlink:href="#a"/>
            </mask>
            <path fill="#0ABE51" stroke="#0ABE51" stroke-width=".5" d="M7.436 2.9a.525.525 0 0 0-.254.441l-.031 2.36-2.253-.03.033-2.438a.524.524 0 0 0-.219-.431c-.64-.463-.945-1.218-1.085-1.74l5.04.064c-.16.541-.508 1.333-1.231 1.774m2.466 6.58l-3.866-.05-3.918-.049c.077-.442.28-1.099.817-1.637.681-.682 1.736-1.022 3.134-1.004 1.397.018 2.435.381 3.086 1.08.515.552.69 1.218.747 1.66m-.57-9.4L2.987 0a.542.542 0 0 0-.398.167.522.522 0 0 0-.143.402c.007.078.164 1.83 1.41 2.907l-.033 2.526A4.193 4.193 0 0 0 2.157 7.02C.944 8.248.998 9.854 1.001 9.923c.012.279.244.5.528.504l3.957.05-.064 4.823c-.003.29.233.53.53.533a.539.539 0 0 0 .38-.15.52.52 0 0 0 .161-.37l.064-4.822 3.896.05a.539.539 0 0 0 .38-.15.522.522 0 0 0 .16-.333c.006-.068.128-1.676-1.036-2.937-.456-.494-1.038-.86-1.74-1.1l.032-2.394C9.632 2.6 9.85.747 9.857.664a.52.52 0 0 0-.132-.406.54.54 0 0 0-.393-.177" mask="url(#b)"/>
        </g>
    </g>
</svg>
