<svg height="60" viewBox="0 0 62 46" width="60" xmlns="http://www.w3.org/2000/svg"><g fill="none" fill-rule="evenodd"><path d="m16.763 1.77a8.434 8.434 0 0 1 8.433 8.432c0 4.659-3.778 8.437-8.433 8.437a8.435 8.435 0 0 1 -8.433-8.437 8.432 8.432 0 0 1 8.433-8.433zm14.993 31.237v-2.187c0-5.154-4.217-9.374-9.37-9.374h-11.246c-5.154 0-9.37 4.22-9.37 9.374v2.187zm8.08-31.237a8.432 8.432 0 0 1 8.433 8.432 8.435 8.435 0 0 1 -8.433 8.437 8.435 8.435 0 0 1 -8.433-8.437 8.432 8.432 0 0 1 8.433-8.433z" stroke="#545859" stroke-linecap="round" stroke-linejoin="round" stroke-width="2"/><path d="m54.83 33.007v-2.187c0-5.154-4.217-9.374-9.37-9.374h-11.247c-5.154 0-9.37 4.22-9.37 9.374v2.187z" stroke="#545859" stroke-linecap="round" stroke-linejoin="round" stroke-width="2"/><path d="m27.674 6.828a8.434 8.434 0 0 1 8.433 8.433 8.435 8.435 0 0 1 -8.433 8.437 8.435 8.435 0 0 1 -8.433-8.437 8.434 8.434 0 0 1 8.433-8.433" fill="#f8f8f8"/><path d="m27.674 6.828a8.434 8.434 0 0 1 8.433 8.433 8.435 8.435 0 0 1 -8.433 8.437 8.435 8.435 0 0 1 -8.433-8.437 8.434 8.434 0 0 1 8.433-8.433z" stroke="#545859" stroke-linecap="round" stroke-linejoin="round" stroke-width="2"/><path d="m42.669 38.066v-2.186c0-5.154-4.217-9.371-9.371-9.371h-11.245c-5.154 0-9.371 4.217-9.371 9.37v2.187z" fill="#f8f8f8"/><path d="m42.669 38.066v-2.186c0-5.154-4.217-9.371-9.371-9.371h-11.245c-5.154 0-9.371 4.217-9.371 9.37v2.187z" stroke="#545859" stroke-linecap="round" stroke-linejoin="round" stroke-width="2"/><circle cx="47" cy="38" fill="#f8f8f8" r="14" stroke="#545859" stroke-width="2"/><g fill="#0abe51" transform="translate(33 24)"><path d="m14.712 12.174h-7.146c-.816 0-1.479.82-1.479 1.83 0 1.005.663 1.822 1.48 1.822h12.867c.815 0 1.479-.817 1.479-1.822 0-1.01-.664-1.83-1.48-1.83"/><path d="m15.826 14.712v-7.146c0-.816-.82-1.479-1.83-1.479-1.005 0-1.822.663-1.822 1.48v12.867c0 .815.817 1.479 1.822 1.479 1.01 0 1.83-.664 1.83-1.48"/></g></g></svg>