<svg enable-background="new 0 0 895.6 304.6" viewBox="0 0 895.6 304.6" xmlns="http://www.w3.org/2000/svg"><path d="m310.4 275.1c-9.8-7.2-22-17-23.2-34.2-.6-9.2 2-19.5 4.6-27 1.6-3.5 3-7.1 4.3-10.7v-.1c28.1-79.3-13.4-166.4-92.8-194.5s-166.3 13.5-194.4 92.8 13.4 166.4 92.8 194.5c43.8 15.5 92.3 10.2 131.7-14.5 4-1.9 7.4-3 9.3-2.2 20.2 8.5 42.3 11.1 63.9 7.3 3.8-.6 13.5-4.2 3.8-11.4z" fill="#0abe51"/><g fill="#fff"><path d="m107.6 83.1h102.4c9.5 0 17.2 7.7 17.2 17.2v.7c0 9.5-7.7 17.2-17.2 17.2h-102.4c-9.5 0-17.2-7.7-17.2-17.2v-.7c0-9.5 7.7-17.2 17.2-17.2z"/><path d="m107.6 135.2h64.7c9.5 0 17.2 7.7 17.2 17.2v.8c0 9.5-7.7 17.2-17.2 17.2h-64.7c-9.5 0-17.2-7.7-17.2-17.2v-.8c0-9.5 7.7-17.2 17.2-17.2z"/><path d="m107.6 186.4h11.7c9.5 0 17.2 7.7 17.2 17.2v.7c0 9.5-7.7 17.2-17.2 17.2h-11.7c-9.5 0-17.2-7.7-17.2-17.2v-.7c0-9.5 7.7-17.2 17.2-17.2z"/><path d="m441.1 86.6c-3.7 0-7-2.5-12.2-2.5-10.2 0-16.5 7-16.5 19.7v7.5h14.5c6.5 0 11.8 5.3 11.8 11.8s-5.3 11.8-11.8 11.8h-14.5v85.1c0 7.4-6 13.4-13.5 13.4-7.4 0-13.4-6-13.4-13.4v-85.2h-10c-6.5 0-11.8-5.3-11.8-11.8s5.3-11.8 11.8-11.8h10v-7.5c0-25.4 15.2-40.9 38.4-40.9 13.7 0 26.7 5 26.7 13.5.2 5.4-4 10-9.3 10.2-.1.1-.1.1-.2.1z"/><path d="m486.9 233.2c-7.2 0-13.2-5.8-13.2-13 0-.1 0-.1 0-.2v-143.1c0-7 5.7-13 13.7-13 7.1.1 12.9 5.9 13 13v143.1c-.1 7.3-6.1 13.2-13.5 13.2z"/><path d="m586.9 234.7c-38.6 0-62.1-28.7-62.1-63.3 0-34.4 23.4-63.1 62.1-63.1s62 28.7 62 63.1c0 34.6-23.4 63.3-62 63.3zm0-102.7c-22.2 0-34.4 18.4-34.4 39.4 0 21.2 12.2 39.6 34.4 39.6 21.9 0 34.1-18.4 34.1-39.6 0-20.9-12.2-39.4-34.1-39.4z"/><path d="m767.5 221.2c-8.7 8-21.2 13.5-38.6 13.5-36.6 0-62.3-26.7-62.3-63.3 0-36.4 25.7-63.1 62.3-63.1 18.4 0 33.9 6.5 40.6 16.2 1.2 1.6 1.8 3.5 1.7 5.5 0 7-6.2 11.5-12.5 11.5-2.8.1-5.5-.8-7.7-2.5-6-4.6-13.3-7.1-20.9-7-21.7 0-36.1 16.2-36.1 39.4s14.5 39.6 36.1 39.6c7.6 0 15-2.5 20.9-7.2 2.2-1.6 4.9-2.5 7.7-2.5 6.5 0 12.7 4.7 12.7 11.7.1 3.2-1.3 6.3-3.9 8.2z"/><path d="m882.5 233.2c-4.4.1-8.5-1.9-11-5.5l-33.4-45.4-16.5 17.2v20.5c-.1 7.4-6.1 13.3-13.5 13.2-7.2 0-13.2-5.8-13.2-13 0-.1 0-.1 0-.2v-143.1c0-7 5.7-13 13.7-13 7.1.1 12.9 5.9 13 13v92l50.1-55.3c2.2-2.5 5.4-3.9 8.7-4 6.9.2 12.5 5.8 12.7 12.7-.1 2.9-1.2 5.7-3 8l-32.9 35.6 35.9 46.4c1.5 2.2 2.4 4.8 2.5 7.5.1 6.4-5.2 13.4-13.1 13.4z"/></g></svg>